Coordinates
version=1
nRows=30
nColumns=30
inDegrees=yes

Units are S.I. units (second, meters, Newtons, ...)
Angles are in degrees.

endheader
time	floatyaw	floatroll	floatpitch	floatx	floaty	floatz	pro_sup_l	deviation_l	flexion_l	cmc_flexion_l	cmc_abduction_l	mp_flexion_l	ip_flexion_l	2mcp_flexion_l	2mcp_abduction_l	2pm_flexion_l	2md_flexion_l	3mcp_flexion_l	3mcp_abduction_l	3pm_flexion_l	3md_flexion_l	4mcp_flexion_l	4mcp_abduction_l	4pm_flexion_l	4md_flexion_l	5mcp_flexion_l	5mcp_abduction_l	5pm_flexion_l	5md_flexion_l
-0.495000	-4.367428	-0.612882	99.545687	-0.102685	-0.193843	-0.016853	88.699930	0.044561	-0.750383	14.740177	5.469158	-22.488786	-35.166982	38.673868	7.878222	47.981361	33.025300	23.056140	4.623968	49.624991	32.888416	11.999892	-4.757199	63.753750	42.604388	7.188818	-7.743799	62.507700	41.476850
-0.485000	-4.367428	-0.612882	99.545687	-0.102709	-0.193819	-0.016849	88.688727	0.040929	-0.731079	14.720567	5.451805	-22.487435	-35.155006	38.669692	7.857840	47.995988	33.036725	23.022472	4.628261	49.655300	32.911340	11.998689	-4.765721	63.724230	42.590558	7.184120	-7.736625	62.456085	41.454615
-0.475000	-4.367428	-0.612882	99.545687	-0.102714	-0.193784	-0.016838	88.693080	0.036692	-0.712908	14.706263	5.442616	-22.480806	-35.143735	38.693247	7.839411	48.023615	33.050044	23.000924	4.628696	49.701773	32.941855	12.011935	-4.772838	63.720463	42.587812	7.196295	-7.721081	62.421431	41.435683
-0.465000	-4.367428	-0.612882	99.545687	-0.102699	-0.193732	-0.016816	88.716648	0.029314	-0.692744	14.692840	5.442989	-22.472675	-35.133335	38.751520	7.821503	48.061377	33.062109	22.999687	4.625711	49.761015	32.975289	12.043563	-4.777586	63.742046	42.594363	7.225458	-7.689941	62.411892	41.420742
-0.455000	-4.367428	-0.612882	99.545687	-0.102665	-0.193657	-0.016783	88.760518	0.017280	-0.664073	14.673169	5.451452	-22.471002	-35.125826	38.834375	7.804103	48.104366	33.070846	23.021341	4.619830	49.825822	33.005336	12.091925	-4.779445	63.780618	42.605408	7.269357	-7.640263	62.425080	41.407259
-0.445000	-4.367428	-0.612882	99.545687	-0.102618	-0.193554	-0.016736	88.822654	0.001149	-0.619113	14.641209	5.464894	-22.484875	-35.124922	38.914651	7.788864	48.147033	33.076383	23.059136	4.612097	49.886681	33.026253	12.149014	-4.778850	63.822795	42.614922	7.326324	-7.577565	62.447713	41.390131
-0.435000	-4.367428	-0.612882	99.545687	-0.102559	-0.193417	-0.016673	88.898831	-0.015825	-0.551804	14.596125	5.479554	-22.519995	-35.134603	38.958157	7.777686	48.183912	33.080573	23.097599	4.604417	49.934000	33.034725	12.202647	-4.777181	63.854056	42.617366	7.396606	-7.515542	62.460620	41.363731
-0.425000	-4.367428	-0.612882	99.545687	-0.102483	-0.193241	-0.016590	88.984687	-0.028012	-0.459971	14.544058	5.492162	-22.575011	-35.156974	38.939302	7.770622	48.209833	33.085233	23.118280	4.599208	49.960845	33.030779	12.241123	-4.776216	63.862581	42.608949	7.480967	-7.470234	62.446680	41.324320
-0.415000	-4.367428	-0.612882	99.545687	-0.102379	-0.193020	-0.016479	89.077366	-0.029266	-0.345581	14.495970	5.502090	-22.640537	-35.190307	38.853848	7.764911	48.220881	33.090645	23.108467	4.598353	49.965362	33.017554	12.258614	-4.777534	63.842300	42.588379	7.577706	-7.451467	62.397448	41.271526
-0.405000	-4.367428	-0.612882	99.545687	-0.102230	-0.192748	-0.016333	89.176063	-0.015780	-0.213397	14.462407	5.514423	-22.701214	-35.228074	38.721486	7.756098	48.216916	33.095724	23.068429	4.602058	49.951949	33.000147	12.258635	-4.782161	63.794642	42.557166	7.680806	-7.456747	62.315162	41.208100
-0.395000	-4.367428	-0.612882	99.545687	-0.102018	-0.192420	-0.016143	89.282443	0.012128	-0.069114	14.447708	5.542653	-22.740004	-35.259559	38.576678	7.740433	48.204455	33.099768	23.012457	4.608390	49.931008	32.984337	12.253069	-4.790244	63.728776	42.519538	7.781572	-7.472208	62.209729	41.138189
-0.385000	-4.367428	-0.612882	99.545687	-0.101729	-0.192030	-0.015903	89.401990	0.050995	0.082289	14.446455	5.609288	-22.743552	-35.272469	38.452279	7.716866	48.197146	33.104320	22.961741	4.614069	49.917624	32.975919	12.256222	-4.800542	63.660003	42.481789	7.873557	-7.481335	62.093231	41.065332
-0.375000	-4.367428	-0.612882	99.545687	-0.101351	-0.191573	-0.015609	89.545554	0.097164	0.237861	14.444244	5.742749	-22.707190	-35.257340	38.363654	7.687534	48.211863	33.113528	22.932456	4.616356	49.928494	32.980252	12.276628	-4.810076	63.605564	42.450550	7.957444	-7.476984	61.975617	40.991628
-0.365000	-4.367428	-0.612882	99.545687	-0.100875	-0.191037	-0.015255	89.729103	0.148737	0.397860	14.423570	5.969315	-22.637519	-35.212131	38.300789	7.656540	48.261292	33.132479	22.926396	4.614999	49.975736	33.000518	12.311271	-4.814564	63.577907	42.429849	8.041774	-7.468858	61.863608	40.918545
-0.355000	-4.367428	-0.612882	99.545687	-0.100291	-0.190406	-0.014830	89.970850	0.204413	0.567015	14.373443	6.300927	-22.550536	-35.144394	38.232068	7.627290	48.346485	33.164234	22.930179	4.612677	50.058073	33.034175	12.345484	-4.809741	63.577412	42.418039	8.138051	-7.480315	61.761503	40.848127
-0.345000	-4.367428	-0.612882	99.545687	-0.099585	-0.189652	-0.014313	90.287006	0.260559	0.756067	14.298613	6.723619	-22.465296	-35.069124	38.117341	7.599054	48.453631	33.207265	22.923149	4.612868	50.153611	33.069594	12.358079	-4.792806	63.588104	42.406475	8.252834	-7.534793	61.670750	40.782752
-0.335000	-4.367428	-0.612882	99.545687	-0.098735	-0.188740	-0.013673	90.687898	0.310168	0.983074	14.223140	7.194512	-22.395848	-35.002919	37.923161	7.564404	48.557552	33.254973	22.888653	4.615803	50.220427	33.086300	12.328842	-4.763058	63.579347	42.381292	8.381883	-7.639178	61.587040	40.722862
-0.325000	-4.367428	-0.612882	99.545687	-0.097701	-0.187626	-0.012871	91.174415	0.346054	1.272619	14.185105	7.653309	-22.345356	-34.957310	37.633007	7.509656	48.630893	33.297875	22.822240	4.615183	50.208527	33.060818	12.246043	-4.721563	63.514485	42.328045	8.510766	-7.774249	61.497447	40.664230
-0.315000	-4.367428	-0.612882	99.545687	-0.096432	-0.186266	-0.011867	91.733702	0.366939	1.650462	14.223705	8.046339	-22.304912	-34.934364	37.248830	7.419432	48.654931	33.327549	22.733469	4.598818	50.080382	32.976509	12.112780	-4.670617	63.364829	42.237672	8.623198	-7.898827	61.381496	40.597121
-0.305000	-4.367428	-0.612882	99.545687	-0.094859	-0.184617	-0.010622	92.334686	0.382961	2.133199	14.364101	8.352269	-22.257119	-34.926057	36.784690	7.283750	48.627379	33.340746	22.642210	4.554113	49.830964	32.832544	11.950306	-4.613648	63.124353	42.111405	8.714118	-7.966741	61.217027	40.508287
-0.295000	-4.367428	-0.612882	99.545687	-0.092906	-0.182646	-0.009111	92.926929	0.418081	2.716220	14.607148	8.595658	-22.182519	-34.916977	36.256301	7.103491	48.564324	33.342045	22.572472	4.475502	49.495825	32.646362	11.795262	-4.555058	62.817634	41.962004	8.800735	-7.948159	60.987260	40.384571
-0.285000	-4.367428	-0.612882	99.545687	-0.090499	-0.180331	-0.007316	93.446442	0.509281	3.365857	14.929633	8.840136	-22.066096	-34.888821	35.671409	6.889899	48.495321	33.343686	22.546366	4.369031	49.139498	32.446557	11.689450	-4.498989	62.493966	41.809426	8.924010	-7.843900	60.684434	40.216296
-0.275000	-4.367428	-0.612882	99.545687	-0.087565	-0.177653	-0.005221	93.827995	0.703123	4.020542	15.295995	9.163688	-21.901371	-34.825163	35.025229	6.657257	48.452568	33.361723	22.579707	4.251102	48.826562	32.258444	11.665979	-4.447086	62.207085	41.671620	9.137105	-7.684570	60.309179	39.999658
-0.265000	-4.367428	-0.612882	99.545687	-0.084038	-0.174590	-0.002809	94.018729	1.048989	4.601716	15.676639	9.628143	-21.691050	-34.715577	34.303485	6.413010	48.457992	33.409304	22.679973	4.142422	48.589274	32.089783	11.739559	-4.397046	61.989354	41.554465	9.484616	-7.514453	59.868870	39.738300
-0.255000	-4.367428	-0.612882	99.545687	-0.079853	-0.171123	-0.000057	93.987381	1.588183	5.031156	16.063952	10.258359	-21.445054	-34.558880	33.492205	6.152220	48.514459	33.489885	22.846344	4.060657	48.410075	31.925114	11.906121	-4.343672	61.833736	41.446062	9.982289	-7.368505	59.377716	39.443702
-0.245000	-4.367428	-0.612882	99.545687	-0.074959	-0.167248	0.003058	93.728015	2.340984	5.249148	16.477730	11.042418	-21.177620	-34.365284	32.588524	5.860714	48.606321	33.594110	23.070284	4.014885	48.229660	31.732554	12.149757	-4.282047	61.691703	41.318351	10.607491	-7.254885	58.856548	39.132761
-0.235000	-4.367428	-0.612882	99.545687	-0.069327	-0.163001	0.006545	93.261283	3.296978	5.228004	16.956615	11.954453	-20.904325	-34.156673	31.604258	5.525085	48.709929	33.702999	23.334846	4.003236	47.976584	31.479859	12.450809	-4.210607	61.485522	41.135185	11.305439	-7.152378	58.326604	38.821285
-0.225000	-4.367428	-0.612882	99.545687	-0.062959	-0.158460	0.010393	92.635476	4.413508	4.977323	17.538966	12.990117	-20.638734	-33.963996	30.558148	5.142988	48.809498	33.797241	23.612282	4.014255	47.602979	31.151970	12.791325	-4.132267	61.127834	40.863798	12.008813	-7.023787	57.794285	38.514815
-0.215000	-4.367428	-0.612882	99.545687	-0.055889	-0.153742	0.014570	91.925206	5.622628	4.540883	18.242019	14.195161	-20.388790	-33.821755	29.461522	4.727708	48.910255	33.868589	23.862468	4.031909	47.108541	30.761669	13.158375	-4.053539	60.543111	40.486769	12.662789	-6.838243	57.232790	38.201751
-0.205000	-4.367428	-0.612882	99.545687	-0.048173	-0.148986	0.019024	91.223185	6.842708	3.988630	19.049749	15.665830	-20.154982	-33.761316	28.308156	4.305787	49.040213	33.926359	24.037353	4.042501	46.540632	30.347409	13.546267	-3.982572	59.688816	40.011685	13.245212	-6.591226	56.575434	37.855272
